#!OML:ASF F:\VICON\USERDATA\INSTALL\rory3\rory3.ASF
:FULLY-SPECIFIED
:DEGREES
3133
root 9.36089 18.2109 15.0463 195.294 -44.1508 189.074
lowerback 20.3848 1.99416 -5.37548
upperback 7.20396 0.354415 -4.19409
thorax -3.61368 -0.228679 -1.48883
lowerneck -12.3051 11.8478 0.425831
upperneck 5.27753 16.9434 -13.0049
head 4.77958 7.62241 -2.63121
rclavicle -3.97569e-014 -1.1291e-013
rhumerus 5.37515 57.0273 -88.3297
rradius 79.9198
rwrist 19.8098
rhand -25.4822 -17.7251
rfingers 7.12502
rthumb 1.04584 312.298
lclavicle -3.97569e-014 -1.1291e-013
lhumerus 29.7734 11.7081 78.1732
lradius 18.203
lwrist 29.2826
lhand -16.1262 -309.531
lfingers 7.12502
lthumb 10.0784 -279.792
rfemur -27.0457 16.6616 10.4072
rtibia 30.8282
rfoot -20.7114 -23.1669
rtoes -12.9578
lfemur -44.4524 13.3231 -11.9752
ltibia 43.1843
lfoot -15.193 12.9989
ltoes -13.0339
3134
root 9.33871 18.2062 15.0322 195.102 -44.2918 189.157
lowerback 20.4813 2.00565 -5.39348
upperback 7.17789 0.354193 -4.2195
thorax -3.69125 -0.227337 -1.5077
lowerneck -12.2731 11.9215 0.601229
upperneck 5.34527 17.058 -13.3818
head 4.85518 7.6535 -2.75194
rclavicle 1.74931e-014 1.11319e-014
rhumerus 7.13279 56.9274 -87.6179
rradius 79.7942
rwrist 20.0768
rhand -25.0035 -18.2983
rfingers 7.12502
rthumb 1.50815 311.727
lclavicle 1.74931e-014 1.11319e-014
lhumerus 30.7901 14.0042 79.4013
lradius 18.2648
lwrist 26.9434
lhand -16.0697 -309.556
lfingers 7.12502
lthumb 10.1329 -279.82
rfemur -27.3863 16.5755 10.4484
rtibia 31.8774
rfoot -20.4493 -22.828
rtoes -13.4829
lfemur -44.2721 13.2345 -11.8715
ltibia 43.2307
lfoot -15.2943 12.9655
ltoes -13.3392
3135
root 9.31241 18.2029 15.0153 194.995 -44.4806 189.117
lowerback 20.6169 2.0003 -5.23413
upperback 7.11048 0.35083 -4.39336
thorax -3.83159 -0.223899 -1.78658
lowerneck -12.2264 11.9156 0.88091
upperneck 5.47547 17.0469 -13.6334
head 4.93548 7.6308 -2.86348
rclavicle 5.56597e-014 -6.52014e-014
rhumerus 8.40354 56.5009 -87.3344
rradius 79.8269
rwrist 20.6282
rhand -24.7134 -18.7922
rfingers 7.12502
rthumb 1.78838 311.236
lclavicle 5.56597e-014 -6.52014e-014
lhumerus 32.133 16.5718 81.1025
lradius 18.0781
lwrist 23.986
lhand -15.4426 -309.67
lfingers 7.12502
lthumb 10.7378 -279.964
rfemur -27.7137 16.3663 10.4242
rtibia 32.981
rfoot -20.0921 -22.4085
rtoes -13.668
lfemur -44.0698 13.0958 -11.8638
ltibia 43.2612
lfoot -15.4483 12.8605
ltoes -12.956
3136
root 9.28612 18.2024 14.9913 194.955 -44.638 188.856
lowerback 20.6377 2.17428 -5.62619
upperback 7.18377 0.500494 -4.27567
thorax -3.76777 -0.160109 -1.47412
lowerneck -12.2334 11.8521 0.832952
upperneck 5.51012 17.0038 -14.0173
head 4.97935 7.57663 -2.97201
rclavicle -4.29375e-014 7.95139e-015
rhumerus 9.70314 56.1027 -86.3032
rradius 80.1433
rwrist 21.2333
rhand -24.165 -19.2072
rfingers 7.12502
rthumb 2.31803 310.826
lclavicle -4.29375e-014 7.95139e-015
lhumerus 33.3341 18.0995 82.6082
lradius 18.208
lwrist 22.9023
lhand -15.0787 -309.391
lfingers 7.12502
lthumb 11.0888 -279.704
rfemur -27.9735 16.2593 10.2312
rtibia 34.1426
rfoot -19.8414 -21.8914
rtoes -13.7119
lfemur -43.7359 13.0111 -12.0248
ltibia 43.2693
lfoot -15.5807 12.6747
ltoes -12.6996
3137
root 9.25997 18.1994 14.9654 194.938 -44.8366 188.651
lowerback 20.6446 2.25599 -5.87928
upperback 7.19434 0.559127 -4.22495
thorax -3.76297 -0.13457 -1.29107
lowerneck -12.1749 11.8338 0.769476
upperneck 5.48723 16.9982 -14.2176
head 4.97732 7.561 -3.02613
rclavicle -7.4743e-014 -4.13472e-014
rhumerus 10.5217 55.613 -85.8382
rradius 80.586
rwrist 21.9453
rhand -23.0574 -18.9653
rfingers 7.12502
rthumb 3.38769 311.082
lclavicle -7.4743e-014 -4.13472e-014
lhumerus 33.9634 18.4569 82.9329
lradius 18.6414
lwrist 23.5607
lhand -14.8714 -309.186
lfingers 7.12502
lthumb 11.2888 -279.509
rfemur -28.3372 16.191 10.0556
rtibia 35.3518
rfoot -19.4512 -21.317
rtoes -13.9549
lfemur -43.4678 12.9449 -12.1596
ltibia 43.2302
lfoot -15.6391 12.49
ltoes -12.7519
3138
root 9.23436 18.1988 14.9355 194.872 -45.1313 188.508
lowerback 20.6737 2.31205 -5.98325
upperback 7.17783 0.616473 -4.1704
thorax -3.798 -0.104942 -1.18837
lowerneck -12.0055 11.7842 0.780849
upperneck 5.46762 16.9409 -14.4853
head 4.96703 7.52207 -3.12215
rclavicle 6.20208e-014 -6.36111e-015
rhumerus 11.0352 54.8523 -85.6219
rradius 81.1162
rwrist 22.6736
rhand -22.1857 -19.0303
rfingers 7.12502
rthumb 4.22942 311.032
lclavicle 6.20208e-014 -6.36111e-015
lhumerus 34.2546 18.1912 82.8009
lradius 19.293
lwrist 24.7162
lhand -14.5167 -308.932
lfingers 7.12502
lthumb 11.6308 -279.275
rfemur -28.7031 16.1137 9.97566
rtibia 36.6085
rfoot -18.985 -20.9537
rtoes -14.2235
lfemur -43.1756 12.7971 -12.2048
ltibia 43.1261
lfoot -15.7312 12.2895
ltoes -12.2061
3139
root 9.20696 18.2052 14.8967 194.712 -45.369 188.269
lowerback 20.8372 2.46696 -6.15936
upperback 7.20143 0.758824 -4.16824
thorax -3.861 -0.0398794 -1.12418
lowerneck -11.9449 11.6869 0.84079
upperneck 5.58283 16.8233 -14.6207
head 5.00239 7.45013 -3.18361
rclavicle -3.02153e-014 8.42847e-014
rhumerus 11.3445 53.859 -85.5331
rradius 81.7067
rwrist 23.5816
rhand -21.317 -19.1797
rfingers 7.12502
rthumb 5.06831 310.901
lclavicle -3.02153e-014 8.42847e-014
lhumerus 34.2781 17.1649 82.1488
lradius 20.1592
lwrist 26.5452
lhand -14.3021 -308.208
lfingers 7.12502
lthumb 11.8378 -278.563
rfemur -28.9011 16.2671 9.82078
rtibia 37.8918
rfoot -18.601 -20.6449
rtoes -13.8945
lfemur -42.6191 12.7246 -12.2945
ltibia 42.9844
lfoot -15.8066 12.0401
ltoes -11.6756
3140
root 9.17547 18.2128 14.8653 194.693 -45.6285 187.959
lowerback 20.9196 2.56973 -6.26165
upperback 7.20064 0.856471 -4.2109
thorax -3.90671 0.00641525 -1.13804
lowerneck -12.2363 11.5453 0.608525
upperneck 6.02365 16.7005 -14.2942
head 5.12718 7.36074 -3.04279
rclavicle 5.40694e-014 9.22361e-014
rhumerus 11.4382 52.8691 -85.5145
rradius 82.3995
rwrist 24.4237
rhand -20.1067 -18.1434
rfingers 7.12502
rthumb 6.23681 311.968
lclavicle 5.40694e-014 9.22361e-014
lhumerus 34.1545 15.8243 81.2879
lradius 21.139
lwrist 28.7431
lhand -14.1793 -307.431
lfingers 7.12502
lthumb 11.9562 -277.792
rfemur -29.251 16.3877 9.51399
rtibia 39.2099
rfoot -18.1658 -20.1144
rtoes -13.2946
lfemur -42.1473 12.5577 -12.4569
ltibia 42.796
lfoot -15.7672 11.9536
ltoes -12.6302
3141
root 9.1435 18.2151 14.837 194.734 -45.9835 187.718
lowerback 20.8876 2.56656 -6.25736
upperback 7.155 0.863558 -4.21883
thorax -3.93942 0.0153247 -1.15067
lowerneck -12.5851 11.4575 0.263564
upperneck 6.61956 16.6792 -13.8694
head 5.29961 7.31184 -2.83945
rclavicle 3.81667e-014 1.06549e-013
rhumerus 11.4891 52.0755 -85.357
rradius 83.2546
rwrist 24.9959
rhand -19.1893 -17.7204
rfingers 7.12502
rthumb 7.12246 312.419
lclavicle 3.81667e-014 1.06549e-013
lhumerus 34.1637 14.7039 80.6829
lradius 21.8905
lwrist 30.696
lhand -13.9216 -306.739
lfingers 7.12502
lthumb 12.2047 -277.115
rfemur -29.7266 16.2664 9.27207
rtibia 40.5305
rfoot -17.6258 -19.3981
rtoes -12.4124
lfemur -41.838 12.3041 -12.5729
ltibia 42.5945
lfoot -15.7601 11.8531
ltoes -13.059
3142
root 9.1119 18.2201 14.7979 194.678 -46.3052 187.379
lowerback 20.9979 2.63155 -6.38367
upperback 7.12308 0.909501 -4.23388
thorax -4.03275 0.0393854 -1.11018
lowerneck -12.5583 11.3818 0.220361
upperneck 6.8826 16.6053 -13.7943
head 5.36136 7.26138 -2.81495
rclavicle -6.36111e-014 -4.92986e-014
rhumerus 11.3196 51.1976 -85.3864
rradius 84.1079
rwrist 25.6599
rhand -18.4161 -17.8232
rfingers 7.12502
rthumb 7.86871 312.343
lclavicle -6.36111e-014 -4.92986e-014
lhumerus 34.2809 13.6403 80.3584
lradius 22.432
lwrist 32.3385
lhand -14.1344 -306.141
lfingers 7.12502
lthumb 11.9995 -276.505
rfemur -30.0077 16.1799 9.02759
rtibia 41.8414
rfoot -17.0589 -18.6216
rtoes -11.3061
lfemur -41.2966 12.1128 -12.7217
ltibia 42.3827
lfoot -15.8364 11.6903
ltoes -13.037
